<?xml version="1.0" standalone="no"?>
<!DOCTYPE svg PUBLIC "-//W3C//DTD SVG 20010904//EN"
 "http://www.w3.org/TR/2001/REC-SVG-20010904/DTD/svg10.dtd">
<svg version="1.0" xmlns="http://www.w3.org/2000/svg"
 width="700.000000pt" height="700.000000pt" viewBox="0 0 700.000000 700.000000"
 preserveAspectRatio="xMidYMid meet">
<metadata>
Created by potrace 1.14, written by Peter Selinger 2001-2017
</metadata>
<g transform="translate(0.000000,700.000000) scale(0.100000,-0.100000)"
fill="#000000" stroke="none">
<path d="M3300 6977 c-3 -2 -52 -7 -109 -11 -58 -4 -107 -8 -110 -10 -3 -2
-28 -6 -56 -10 -178 -22 -449 -87 -650 -156 -484 -167 -920 -440 -1295 -809
-533 -525 -887 -1205 -995 -1911 -4 -25 -9 -52 -10 -60 -1 -8 -6 -43 -10 -78
-4 -35 -9 -80 -12 -100 -9 -67 -11 -525 -3 -607 35 -357 99 -638 217 -950 199
-527 550 -1022 993 -1400 342 -293 732 -515 1150 -655 180 -60 453 -124 615
-145 28 -4 61 -8 74 -10 166 -26 642 -26 816 0 17 2 66 9 110 15 65 10 194 34
285 55 141 31 372 106 525 169 92 38 313 147 395 194 72 42 278 180 365 245
616 463 1086 1163 1271 1890 34 134 71 318 79 392 4 33 8 71 11 85 24 148 25
608 0 795 -24 179 -25 187 -47 300 -159 794 -616 1527 -1273 2043 -80 63 -318
226 -386 265 -391 223 -843 380 -1250 433 -25 3 -74 10 -110 15 -66 10 -581
24 -590 16z m480 -242 c83 -7 90 -8 205 -24 222 -31 484 -101 704 -188 147
-58 343 -153 339 -165 -2 -5 -95 -102 -208 -215 l-205 -206 -60 23 c-423 162
-686 212 -1085 205 -268 -5 -282 -6 -480 -45 -164 -33 -326 -81 -480 -143
l-105 -43 -212 213 c-150 150 -208 214 -200 221 20 16 227 112 327 152 164 65
330 115 530 159 115 25 300 51 420 58 58 3 106 7 108 8 6 5 333 -3 402 -10z
m-1787 -713 l198 -199 -103 -66 c-354 -226 -666 -547 -866 -890 l-22 -38 -210
210 -211 210 18 28 c175 276 461 585 735 795 158 121 230 167 248 157 8 -4
104 -97 213 -207z m3364 145 c233 -160 490 -402 698 -658 36 -44 71 -92 129
-178 l56 -83 -207 -208 c-192 -192 -209 -206 -225 -192 -10 8 -18 19 -18 24 0
18 -159 244 -238 338 -185 221 -421 426 -662 573 l-62 39 207 208 c189 189
210 208 229 198 12 -6 54 -34 93 -61z m-1717 -932 c108 -8 220 -25 243 -36 9
-6 17 -16 17 -23 0 -23 58 -203 96 -300 20 -50 63 -143 96 -207 l61 -117 -93
-128 c-135 -188 -122 -177 -205 -160 -69 15 -165 21 -345 21 -195 0 -262 -5
-374 -26 -28 -5 -53 -6 -56 -2 -4 5 -40 55 -81 111 -41 57 -87 122 -103 144
l-28 40 70 141 c75 152 128 286 163 413 11 44 27 84 35 90 8 6 36 15 62 19 26
3 56 8 67 10 11 2 61 7 110 11 50 3 91 7 92 8 3 2 69 -1 173 -9z m-738 -127
c10 -30 -86 -265 -165 -405 -40 -72 -48 -78 -117 -89 -14 -2 -35 -6 -47 -9
-48 -11 -182 -25 -295 -30 -67 -3 -89 -1 -98 10 -17 20 -1 42 108 151 137 139
318 267 479 339 32 14 65 30 73 35 22 13 58 12 62 -2z m1355 -36 c231 -115
397 -242 556 -422 41 -47 43 -53 25 -67 -18 -14 -222 -6 -332 12 -95 16 -151
28 -171 35 -41 16 -239 450 -219 482 10 15 55 3 141 -40z m-3200 -527 c-103
-242 -171 -515 -198 -795 -11 -118 -7 -455 6 -555 34 -252 103 -509 192 -718
l29 -67 -210 -213 c-116 -117 -214 -210 -218 -207 -3 3 -29 50 -56 105 -107
213 -197 470 -252 720 -28 128 -33 157 -45 245 -3 25 -8 61 -10 80 -19 146
-25 442 -12 615 26 331 103 662 226 969 36 90 128 284 143 303 8 10 65 -41
222 -200 l212 -212 -29 -70z m5353 395 c265 -528 380 -1172 315 -1762 -8 -78
-18 -156 -20 -173 -58 -337 -160 -656 -301 -937 l-44 -88 -214 214 -215 215
33 78 c97 230 171 524 193 764 10 111 10 446 0 534 -33 275 -111 575 -207 787
l-19 43 212 213 c116 116 213 212 214 212 2 0 25 -45 53 -100z m-3629 -582
c29 -40 74 -102 101 -138 26 -36 48 -71 48 -78 0 -7 -18 -52 -41 -100 -94
-198 -146 -357 -188 -568 l-27 -137 -64 -22 c-36 -13 -116 -39 -178 -59 l-114
-36 -61 67 c-88 94 -262 241 -374 315 l-95 63 6 60 c14 159 83 390 167 558 28
56 53 104 55 106 2 2 99 5 216 6 117 2 224 6 238 9 14 3 48 8 75 11 28 3 73
12 100 19 29 8 57 10 66 5 9 -5 41 -41 70 -81z m1638 68 c30 -4 64 -9 75 -11
64 -13 141 -18 313 -20 106 0 194 -3 197 -6 2 -2 27 -51 56 -108 46 -93 121
-294 134 -361 2 -14 10 -50 16 -80 6 -30 13 -82 16 -115 l6 -60 -49 -30 c-103
-64 -263 -193 -371 -301 -104 -103 -116 -111 -140 -104 -101 30 -318 103 -324
109 -4 3 -12 38 -18 76 -33 213 -134 515 -224 678 l-25 45 27 39 c97 141 189
262 202 266 8 2 24 0 35 -4 11 -3 44 -9 74 -13z m-669 -330 c32 -5 69 -11 129
-23 36 -6 34 -4 83 -105 89 -182 174 -455 193 -614 l7 -61 -79 -80 c-95 -96
-201 -182 -308 -250 -76 -48 -202 -116 -217 -118 -3 0 -10 -3 -14 -7 -32 -32
-219 61 -414 206 -114 85 -270 237 -270 263 0 11 4 44 10 74 5 30 11 65 14 79
27 154 112 396 192 545 31 59 32 60 90 72 33 7 91 15 129 19 39 3 72 8 74 10
6 6 335 -4 381 -10z m-1811 -762 c25 -21 93 -85 150 -141 l103 -104 -6 -67
c-11 -118 -35 -238 -71 -359 -42 -136 -51 -131 -156 77 -93 186 -157 412 -173
607 -5 63 -4 72 12 75 17 4 58 -21 141 -88z m3296 27 c-16 -137 -20 -159 -45
-268 -11 -46 -36 -127 -56 -180 -34 -92 -128 -284 -160 -328 -32 -44 -63 19
-104 215 -27 130 -30 146 -37 221 l-6 65 64 69 c77 82 212 202 276 244 59 39
76 30 68 -38z m-2420 -289 c157 -153 313 -266 495 -358 52 -26 98 -52 101 -57
8 -11 8 -352 0 -365 -3 -5 -45 -28 -93 -51 -122 -59 -288 -161 -388 -240 -47
-37 -90 -70 -97 -74 -15 -9 -170 67 -267 132 -114 74 -230 173 -325 273 l-33
36 40 114 c38 104 75 234 86 301 3 15 7 35 10 45 4 16 8 39 25 167 l6 49 170
57 c94 32 172 58 175 58 4 1 46 -38 95 -87z m1677 22 c95 -30 150 -54 153 -63
2 -9 6 -34 9 -56 18 -155 53 -306 108 -464 22 -64 42 -123 44 -131 9 -30 -192
-215 -346 -317 -62 -42 -249 -143 -264 -143 -2 0 -32 23 -67 51 -107 86 -277
194 -405 258 l-121 60 0 179 c-1 99 2 184 6 189 3 5 40 26 81 46 173 83 354
212 503 358 90 88 102 96 126 89 14 -4 92 -29 173 -56z m-3282 -915 c0 -17
123 -199 207 -306 191 -244 414 -446 682 -615 41 -26 79 -49 84 -51 6 -2 -85
-98 -202 -215 l-212 -211 -82 56 c-193 132 -290 215 -487 414 -144 145 -256
279 -365 438 l-58 83 209 209 c115 115 212 209 216 209 5 0 8 -5 8 -11z m4823
-197 l207 -208 -64 -94 c-214 -315 -507 -607 -840 -839 l-89 -62 -211 211
c-117 118 -206 214 -199 217 7 2 66 40 130 82 247 163 454 354 630 579 77 98
213 298 213 314 0 4 3 8 8 8 4 0 100 -94 215 -208z m-2485 130 c243 -119 416
-228 410 -260 -2 -11 -21 -21 -58 -29 -145 -32 -207 -38 -415 -37 -156 0 -209
4 -300 23 -104 21 -129 33 -122 56 6 18 196 141 295 191 131 66 154 73 190 56z
m-1023 -1072 c316 -131 656 -192 1030 -185 354 6 650 65 949 189 l107 44 215
-214 214 -214 -87 -44 c-311 -155 -701 -275 -1018 -311 -27 -3 -59 -8 -70 -10
-102 -20 -461 -23 -650 -6 -395 37 -793 149 -1135 321 l-102 51 213 215 c118
117 219 212 224 210 6 -3 55 -23 110 -46z"/>
</g>
</svg>
